<svg xmlns="http://www.w3.org/2000/svg" fill="none" viewBox="0 0 32 32" height="32" width="32"><g id="like-1--reward-social-up-rating-media-like-thumb-hand"><path id="Union" fill="#512bd4" fill-rule="evenodd" d="M17.55428571428571 1.7782857142857142c2.0868571428571427 0 3.693714285714286 1.846857142857143 3.4057142857142857 3.913142857142857l-0.4502857142857143 3.1999999999999997h4.379428571428571c1.2959999999999998 0 3.033142857142857 0.6125714285714285 4.443428571428571 1.7417142857142855C30.779428571428568 11.789714285714286 32 13.586285714285713 32 16c0 2.2537142857142856 -1.090285714285714 5.716571428571428 -2.672 8.582857142857142 -0.7999999999999999 1.4468571428571428 -1.76 2.8182857142857145 -2.8457142857142856 3.84 -1.0719999999999998 1.0102857142857142 -2.384 1.7965714285714285 -3.856 1.7965714285714285 -5.554285714285714 0 -10.317714285714287 -1.28 -12.738285714285714 -1.9657142857142855a0.576 0.576 0 0 0 -0.16 -0.022857142857142857 0.5874285714285714 0.5874285714285714 0 0 1 -0.5851428571428571 -0.5874285714285714V11.93142857142857a2.2857142857142856 2.2857142857142856 0 0 1 0.416 -1.314285714285714l5.1817142857142855 -7.3759999999999994c0.6445714285714285 -0.9165714285714286 1.6937142857142855 -1.4628571428571429 2.8114285714285714 -1.4628571428571429Zm-14.41142857142857 8.571428571428571C1.4057142857142857 10.349714285714285 0 11.757714285714286 0 13.492571428571427v13.142857142857142a3.142857142857143 3.142857142857143 0 1 0 6.285714285714286 0v-13.142857142857142c0 -1.737142857142857 -1.408 -3.142857142857143 -3.142857142857143 -3.142857142857143Z" clip-rule="evenodd" stroke-width="2.2857142857142856"></path></g></svg>