<svg xmlns="http://www.w3.org/2000/svg" fill="none" viewBox="0 0 32 32" height="32" width="32"><g id="star-1--reward-rating-rate-social-star-media-favorite-like-stars"><path id="Union" fill="#ff9900" fill-rule="evenodd" d="M16 0.6331428571428571a2.3771428571428572 2.3771428571428572 0 0 0 -2.148571428571428 1.362285714285714L10.221714285714286 9.321142857142858a1.1314285714285715 1.1314285714285715 0 0 0 -0.027428571428571427 0.05257142857142857 1.1108571428571428 1.1108571428571428 0 0 0 -0.05257142857142857 0.009142857142857142L2.148571428571428 10.566857142857144a2.3771428571428572 2.3771428571428572 0 0 0 -1.4102857142857141 4.086857142857142l5.851428571428571 5.643428571428571 0.013714285714285714 0.011428571428571429a0.06857142857142856 0.06857142857142856 0 0 1 0.02057142857142857 0.06171428571428571l0 0.009142857142857142 -1.3942857142857141 8.15542857142857 0 0.0022857142857142855a2.4 2.4 0 0 0 3.488 2.5302857142857142l7.199999999999999 -3.8057142857142856a0.20571428571428568 0.20571428571428568 0 0 1 0.16457142857142856 0l7.199999999999999 3.803428571428571a2.3977142857142852 2.3977142857142852 0 0 0 3.4902857142857138 -2.528l-1.3942857142857141 -8.159999999999998 0 -0.006857142857142857c-0.004571428571428571 -0.009142857142857142 -0.0022857142857142855 -0.022857142857142857 0 -0.032a0.06857142857142856 0.06857142857142856 0 0 1 0.018285714285714284 -0.02971428571428571l0.013714285714285714 -0.011428571428571429 5.849142857142857 -5.645714285714286a2.3771428571428572 2.3771428571428572 0 0 0 -1.4102857142857141 -4.0845714285714285l-7.990857142857142 -1.184a1.1108571428571428 1.1108571428571428 0 0 0 -0.05257142857142857 -0.009142857142857142 1.1314285714285715 1.1314285714285715 0 0 0 -0.027428571428571427 -0.05257142857142857L18.14857142857143 1.9954285714285713A2.3771428571428572 2.3771428571428572 0 0 0 16 0.6331428571428571Z" clip-rule="evenodd" stroke-width="2.2857142857142856"></path></g></svg>