<svg xmlns="http://www.w3.org/2000/svg" fill="none" viewBox="-1.145 -1.145 32 32" height="32" width="32"><g id="like-1--reward-social-up-rating-media-like-thumb-hand"><path id="Vector 107" stroke="#512bd4" stroke-linecap="round" stroke-linejoin="round" d="M8.728373571428572 24.02902357142857H7.427499999999999V11.883999999999999l6.408871428571428 -9.118847857142855a2.765152142857142 2.765152142857142 0 0 1 4.999768571428571 1.973592857142857L18.356535714285712 8.19359357142857h4.223064285714285c1.8462642857142855 0 5.540915 1.8462642857142855 5.540915 5.538792857142856 0 3.692528571428571 -3.7137499999999997 12.142901428571427 -7.641836428571428 12.142901428571427 -5.171662142857142 0 -9.594207857142855 -1.230842857142857 -11.748182857142854 -1.8462642857142855Z" stroke-width="2.29"></path><path id="Rectangle 38" stroke="#512bd4" stroke-linecap="round" stroke-linejoin="round" d="M1.5916071428571428 11.406517857142855C1.5916071428571428 9.793689285714285 2.8988471428571425 8.488571428571428 4.509553571428571 8.488571428571428v0c1.6128285714285713 0 2.9179464285714283 1.3072399999999997 2.9179464285714283 2.9179464285714283v12.202321428571427c0 1.6128285714285713 -1.3072399999999997 2.9179464285714283 -2.9179464285714283 2.9179464285714283v0c-1.6128285714285713 0 -2.9179464285714283 -1.3072399999999997 -2.9179464285714283 -2.9179464285714283v-12.202321428571427Z" stroke-width="2.29"></path></g></svg>