<svg xmlns="http://www.w3.org/2000/svg" fill="none" viewBox="-1.145 -1.145 32 32" height="32" width="32"><g id="star-1--reward-rating-rate-social-star-media-favorite-like-stars"><path id="Vector" stroke="#ff9900" stroke-linecap="round" stroke-linejoin="round" d="m15.894913664285712 2.3132205999999993 3.3742071428571427 6.812078571428571c0.07675790714285713 0.17291219999999996 0.19746539285714282 0.32267182142857137 0.3501323499999999 0.4343814214285714 0.15266695714285713 0.11168837857142856 0.3319455857142857 0.18144321428571428 0.5199462214285714 0.2022614357142857l7.448657764285714 1.1035142857142857c0.21582192857142854 0.02771518571428571 0.41912321428571425 0.11622976428571427 0.5863480714285714 0.25520889999999996 0.16722485714285712 0.13895791428571427 0.2915824285714285 0.32265059999999995 0.35821771428571425 0.5295807499999999 0.06684749999999999 0.2069513714285714 0.07321392857142857 0.42863041428571425 0.018674857142857142 0.6391257642857142 -0.05432685714285714 0.2105165714285714 -0.1676492857142857 0.4011486642857142 -0.3265977857142857 0.5496774428571427l-5.369021428571427 5.326578571428571c-0.13687821428571428 0.12802887857142856 -0.23980214285714282 0.28827188571428564 -0.29900992857142855 0.4661923428571428 -0.059419999999999994 0.1778992357142857 -0.07321392857142857 0.36780979999999996 -0.04053292857142857 0.5524362285714285l1.2945071428571426 7.491079399999999c0.037561928571428566 0.2153975 0.01379392857142857 0.436737 -0.06833299999999999 0.6391894285714286 -0.08212692857142856 0.20245242857142853 -0.21942957142857142 0.3777414285714285 -0.39641628571428567 0.5061310714285714 -0.17677449999999997 0.12817742857142855 -0.38622999999999996 0.2041501428571428 -0.6041740714285714 0.21942957142857142 -0.2179440714285714 0.015067214285714284 -0.4358881428571428 -0.031195499999999994 -0.6287909285714285 -0.13390721428571428l-6.705907764285714 -3.5439785714285708c-0.17170257857142854 -0.08424907142857142 -0.3604671857142857 -0.12796521428571428 -0.5517571428571428 -0.12796521428571428s-0.3800333428571428 0.04371614285714285 -0.5517571428571428 0.12796521428571428l-6.705971428571428 3.5439785714285708c-0.19292400714285712 0.10271171428571427 -0.4107619714285714 0.14897442857142856 -0.6287272642857141 0.13390721428571428 -0.21796529285714283 -0.015279428571428569 -0.4273146857142857 -0.09125214285714284 -0.6041952928571428 -0.21942957142857142 -0.17690182857142855 -0.12838964285714283 -0.3142469142857142 -0.30367864285714286 -0.39641628571428567 -0.5061310714285714 -0.08214814999999999 -0.20245242857142853 -0.1058524857142857 -0.4237919285714285 -0.06837544285714285 -0.6391894285714286l1.2945071428571426 -7.575965114285713c0.03280832857142857 -0.18462642857142852 0.018929514285714284 -0.3745369928571428 -0.04036315714285713 -0.5524362285714285 -0.05929267142857142 -0.17792045714285712 -0.1621529357142857 -0.33816346428571425 -0.29917969999999994 -0.4661923428571428l-5.4326793478571425 -5.241692857142857c-0.16072473357142855 -0.15258207142857141 -0.27375642857142857 -0.34851952142857134 -0.3254008971428571 -0.5640231285714286 -0.05164446857142856 -0.21552482857142854 -0.03968407142857143 -0.44140571428571423 0.03442752357142857 -0.6502670142857142 0.07411371714285712 -0.20886129999999997 0.20719966214285712 -0.39174757142857136 0.38314015999999995 -0.5265248642857142 0.17594049785714283 -0.1347560714285714 0.3871828421428571 -0.2156309357142857 0.6081339899999999 -0.23277784999999995l7.448721428571427 -1.1035142857142857c0.18802185714285713 -0.020818221428571426 0.3673004857142857 -0.09057305714285714 0.5199674428571428 -0.2022614357142857 0.15266695714285713 -0.11170959999999998 0.2733744428571428 -0.2614692214285714 0.3501111285714285 -0.4343814214285714l3.3742071428571427 -6.812078571428571c0.0918887857142857 -0.1983991357142857 0.23861374285714282 -0.3663731092857142 0.4228794071428571 -0.4840926178571428 0.1842444428571428 -0.11771950857142856 0.39832621428571424 -0.18026966928571425 0.6169705928571427 -0.18026966928571425 0.21864437857142854 0 0.43274737142857134 0.06255016071428571 0.6169918142857143 0.18026966928571425 0.1842444428571428 0.11771950857142856 0.3309693999999999 0.2856934821428571 0.42285818571428563 0.4840926178571428v0Z" stroke-width="2.29"></path></g></svg>